<svg xmlns="http://www.w3.org/2000/svg" version="1.1" xmlns:xlink="http://www.w3.org/1999/xlink" width="1000" height="1000"><metadata><rdf:RDF xmlns:rdf="http://www.w3.org/1999/02/22-rdf-syntax-ns#" xmlns:dc="http://purl.org/dc/elements/1.1/"><rdf:Description><dc:creator>RealFaviconGenerator</dc:creator><dc:source>https://realfavicongenerator.net</dc:source></rdf:Description></rdf:RDF></metadata><g clip-path="url(#SvgjsClipPath1041)"><rect width="1000" height="1000" fill="#c50750"></rect><g transform="matrix(25,0,0,25,0,0)"><svg xmlns="http://www.w3.org/2000/svg" width="40" height="40" viewBox="0 0 40 40" fill="none"><rect width="40" height="40" rx="8" fill="url(#paint0_linear_568_209)"></rect><path d="M19.9706 12.4678C21.7373 12.4678 23.4039 12.847 24.9706 13.6053C26.5373 14.3637 27.8456 15.4595 28.8956 16.8928C29.0123 17.0428 29.0498 17.1762 29.0081 17.2928C28.9664 17.4095 28.8956 17.5095 28.7956 17.5928C28.6956 17.6762 28.5789 17.7137 28.4456 17.7053C28.3123 17.697 28.1956 17.6262 28.0956 17.4928C27.1789 16.1928 25.9998 15.197 24.5581 14.5053C23.1164 13.8137 21.5873 13.4678 19.9706 13.4678C18.3539 13.4678 16.8373 13.8137 15.4206 14.5053C14.0039 15.197 12.8289 16.1928 11.8956 17.4928C11.7956 17.6428 11.6789 17.7262 11.5456 17.7428C11.4123 17.7595 11.2956 17.7262 11.1956 17.6428C11.0789 17.5595 11.0081 17.4553 10.9831 17.3303C10.9581 17.2053 10.9956 17.0762 11.0956 16.9428C12.1289 15.5262 13.4248 14.4262 14.9831 13.6428C16.5414 12.8595 18.2039 12.4678 19.9706 12.4678ZM19.9706 14.8178C22.2206 14.8178 24.1539 15.5678 25.7706 17.0678C27.3873 18.5678 28.1956 20.4262 28.1956 22.6428C28.1956 23.4762 27.8998 24.172 27.3081 24.7303C26.7164 25.2887 25.9956 25.5678 25.1456 25.5678C24.2956 25.5678 23.5664 25.2887 22.9581 24.7303C22.3498 24.172 22.0456 23.4762 22.0456 22.6428C22.0456 22.0928 21.8414 21.6303 21.4331 21.2553C21.0248 20.8803 20.5373 20.6928 19.9706 20.6928C19.4039 20.6928 18.9164 20.8803 18.5081 21.2553C18.0998 21.6303 17.8956 22.0928 17.8956 22.6428C17.8956 24.2595 18.3748 25.6095 19.3331 26.6928C20.2914 27.7762 21.5289 28.5345 23.0456 28.9678C23.1956 29.0178 23.2956 29.1012 23.3456 29.2178C23.3956 29.3345 23.4039 29.4595 23.3706 29.5928C23.3373 29.7095 23.2706 29.8095 23.1706 29.8928C23.0706 29.9762 22.9456 30.0012 22.7956 29.9678C21.0623 29.5345 19.6456 28.672 18.5456 27.3803C17.4456 26.0887 16.8956 24.5095 16.8956 22.6428C16.8956 21.8095 17.1956 21.1095 17.7956 20.5428C18.3956 19.9762 19.1206 19.6928 19.9706 19.6928C20.8206 19.6928 21.5456 19.9762 22.1456 20.5428C22.7456 21.1095 23.0456 21.8095 23.0456 22.6428C23.0456 23.1928 23.2539 23.6553 23.6706 24.0303C24.0873 24.4053 24.5789 24.5928 25.1456 24.5928C25.7123 24.5928 26.1956 24.4053 26.5956 24.0303C26.9956 23.6553 27.1956 23.1928 27.1956 22.6428C27.1956 20.7095 26.4873 19.0845 25.0706 17.7678C23.6539 16.4512 21.9623 15.7928 19.9956 15.7928C18.0289 15.7928 16.3373 16.4512 14.9206 17.7678C13.5039 19.0845 12.7956 20.7012 12.7956 22.6178C12.7956 23.0178 12.8331 23.5178 12.9081 24.1178C12.9831 24.7178 13.1623 25.4178 13.4456 26.2178C13.4956 26.3678 13.4914 26.5012 13.4331 26.6178C13.3748 26.7345 13.2789 26.8178 13.1456 26.8678C13.0123 26.9178 12.8831 26.9137 12.7581 26.8553C12.6331 26.797 12.5456 26.7012 12.4956 26.5678C12.2456 25.9178 12.0664 25.272 11.9581 24.6303C11.8498 23.9887 11.7956 23.3262 11.7956 22.6428C11.7956 20.4262 12.5998 18.5678 14.2081 17.0678C15.8164 15.5678 17.7373 14.8178 19.9706 14.8178ZM19.9706 10.0178C21.0373 10.0178 22.0789 10.147 23.0956 10.4053C24.1123 10.6637 25.0956 11.0345 26.0456 11.5178C26.1956 11.6012 26.2831 11.7012 26.3081 11.8178C26.3331 11.9345 26.3206 12.0512 26.2706 12.1678C26.2206 12.2845 26.1373 12.3762 26.0206 12.4428C25.9039 12.5095 25.7623 12.5012 25.5956 12.4178C24.7123 11.9678 23.7998 11.622 22.8581 11.3803C21.9164 11.1387 20.9539 11.0178 19.9706 11.0178C19.0039 11.0178 18.0539 11.1303 17.1206 11.3553C16.1873 11.5803 15.2956 11.9345 14.4456 12.4178C14.3123 12.5012 14.1789 12.522 14.0456 12.4803C13.9123 12.4387 13.8123 12.3512 13.7456 12.2178C13.6789 12.0845 13.6623 11.9637 13.6956 11.8553C13.7289 11.747 13.8123 11.6512 13.9456 11.5678C14.8789 11.0678 15.8539 10.6845 16.8706 10.4178C17.8873 10.1512 18.9206 10.0178 19.9706 10.0178ZM19.9706 17.2428C21.5206 17.2428 22.8539 17.7637 23.9706 18.8053C25.0873 19.847 25.6456 21.1262 25.6456 22.6428C25.6456 22.7928 25.5998 22.9137 25.5081 23.0053C25.4164 23.097 25.2956 23.1428 25.1456 23.1428C25.0123 23.1428 24.8956 23.097 24.7956 23.0053C24.6956 22.9137 24.6456 22.7928 24.6456 22.6428C24.6456 21.3928 24.1831 20.347 23.2581 19.5053C22.3331 18.6637 21.2373 18.2428 19.9706 18.2428C18.7039 18.2428 17.6164 18.6637 16.7081 19.5053C15.7998 20.347 15.3456 21.3928 15.3456 22.6428C15.3456 23.9928 15.5789 25.1387 16.0456 26.0803C16.5123 27.022 17.1956 27.9678 18.0956 28.9178C18.1956 29.0178 18.2456 29.1345 18.2456 29.2678C18.2456 29.4012 18.1956 29.5178 18.0956 29.6178C17.9956 29.7178 17.8789 29.7678 17.7456 29.7678C17.6123 29.7678 17.4956 29.7178 17.3956 29.6178C16.4123 28.5845 15.6581 27.5303 15.1331 26.4553C14.6081 25.3803 14.3456 24.1095 14.3456 22.6428C14.3456 21.1262 14.8956 19.847 15.9956 18.8053C17.0956 17.7637 18.4206 17.2428 19.9706 17.2428ZM19.9456 22.1428C20.0956 22.1428 20.2164 22.1928 20.3081 22.2928C20.3998 22.3928 20.4456 22.5095 20.4456 22.6428C20.4456 23.8928 20.8956 24.9178 21.7956 25.7178C22.6956 26.5178 23.7456 26.9178 24.9456 26.9178C25.0456 26.9178 25.1873 26.9095 25.3706 26.8928C25.5539 26.8762 25.7456 26.8512 25.9456 26.8178C26.0956 26.7845 26.2248 26.8053 26.3331 26.8803C26.4414 26.9553 26.5123 27.0678 26.5456 27.2178C26.5789 27.3512 26.5539 27.4678 26.4706 27.5678C26.3873 27.6678 26.2789 27.7345 26.1456 27.7678C25.8456 27.8512 25.5831 27.897 25.3581 27.9053C25.1331 27.9137 24.9956 27.9178 24.9456 27.9178C23.4623 27.9178 22.1748 27.4178 21.0831 26.4178C19.9914 25.4178 19.4456 24.1595 19.4456 22.6428C19.4456 22.5095 19.4914 22.3928 19.5831 22.2928C19.6748 22.1928 19.7956 22.1428 19.9456 22.1428Z" fill="white"></path><defs>
<linearGradient id="paint0_linear_568_209" x1="0" y1="0" x2="40" y2="40" gradientUnits="userSpaceOnUse">
<stop stop-color="#B80049"></stop>
<stop offset="1" stop-color="#E2165F"></stop>
</linearGradient>
<clipPath id="SvgjsClipPath1041"><rect width="1000" height="1000" x="0" y="0" rx="350" ry="350"></rect></clipPath></defs></svg></g></g></svg>